<svg version="1.1" viewBox="0.0 0.0 1020.4724409448819 377.9527559055118" fill="none" stroke="none" stroke-linecap="square" stroke-miterlimit="10"
  xmlns:xlink="http://www.w3.org/1999/xlink"
  xmlns="http://www.w3.org/2000/svg">
  <clipPath id="ga387649962_0_0.0">
    <path d="m0 0l1020.4724 0l0 377.95276l-1020.4724 0l0 -377.95276z" clip-rule="nonzero"/>
  </clipPath>
  <g clip-path="url(#ga387649962_0_0.0)">
    <path fill="" d="m0 0l1020.4724 0l0 377.95276l-1020.4724 0z" fill-rule="evenodd"/>
    <g filter="url(#shadowFilter-ga387649962_0_0.1)">
      <use xlink:href="#ga387649962_0_0.1" transform="matrix(1.0 0.0 0.0 1.0 0.0 17.0)"/>
    </g>
    <defs>
      <filter id="shadowFilter-ga387649962_0_0.1" filterUnits="userSpaceOnUse">
        <feGaussianBlur in="SourceAlpha" stdDeviation="15.5" result="blur"/>
        <feComponentTransfer in="blur" color-interpolation-filters="sRGB">
          <feFuncR type="linear" slope="0" intercept="0.4"/>
          <feFuncG type="linear" slope="0" intercept="0.4"/>
          <feFuncB type="linear" slope="0" intercept="0.4"/>
          <feFuncA type="linear" slope="0.5" intercept="0"/>
        </feComponentTransfer>
      </filter>
    </defs>
    <g id="ga387649962_0_0.1">
      <path fill="#000000" fill-opacity="0.0" d="m82.220474 16.31496l856.0315 0l0 345.3228l-856.0315 0z" fill-rule="evenodd"/>
      <path fill="#f3f3f3" d="m114.657974 284.9556q-2.609375 0 -8.078125 -0.78125q-4.15625 -4.421875 -7.421875 -12.09375q-3.25 -7.6875 -4.953125 -16.406265q-1.6875 -8.734375 -1.5625 -17.453125q0.140625 -8.734375 3.0 -15.5q0 -0.265625 2.46875 -6.25q2.484375 -5.984375 6.390625 -15.21875q3.90625 -9.25 8.84375 -20.578125q4.953125 -11.328125 9.90625 -22.265625q4.953125 -10.9375 9.5 -19.921875q4.5625 -8.984375 7.953125 -13.937492q2.34375 -3.640625 4.296875 -7.03125q1.953125 -3.390625 3.765625 -6.25q2.875 -4.6875 5.34375 -8.71875q2.46875 -4.046875 5.453125 -7.296875q3.0 -3.25 6.640625 -5.71875q3.65625 -2.484375 8.859375 -4.3125q3.125 1.3125 5.46875 2.75q2.34375 1.421875 4.171875 3.5l0.78125 3.65625q0.515625 1.8125 1.6875 2.46875q1.171875 0.65625 1.953125 0.65625q3.390625 0.78125 5.859375 1.6875q2.484375 0.90625 5.34375 1.171875q1.046875 1.5625 1.953125 3.125q0.90625 1.5625 1.953125 2.859375q5.203125 7.5625 8.59375 14.59375q3.390625 7.0312424 0 15.359367l0.265625 2.859375q1.296875 1.828125 1.296875 3.390625q0 1.5625 -0.515625 4.421875q-0.265625 2.09375 -0.40625 4.5625q-0.125 2.46875 0.65625 5.34375l1.828125 2.078125q4.171875 2.078125 8.078125 2.078125q5.203125 0 9.359375 -2.34375q4.171875 -2.34375 7.828125 -4.6875q2.859375 -2.078125 5.328125 -3.375q2.484375 -1.3125 4.828125 -1.828125q5.4687347 -5.203125 10.01561 -9.234375q4.5625 -4.046875 9.515625 -8.21875q9.375 -7.5468674 18.21875 -16.265617q8.859375 -8.734375 14.0625 -21.75q2.859375 -1.828125 6.515625 -1.828125q3.640625 0 7.28125 1.4375q3.65625 1.4375 7.296875 3.25q0.78125 0.53125 1.421875 0.796875q0.65625 0.25 1.4375 0.765625q0 2.875 2.34375 5.21875q1.3125 1.03125 1.828125 1.296875q0.515625 0.265625 1.046875 0.515625q2.078125 1.3125 3.5 2.359375q1.4375 1.03125 2.21875 2.859375q2.34375 7.03125 7.8125 10.9375q-0.515625 2.859375 0.265625 5.59375q0.78125 2.7343674 1.828125 5.3437424q0.515625 1.03125 0.765625 1.953125q0.265625 0.90625 0.796875 2.203125l-5.734375 -0.515625l0.78125 5.734375q0.78125 4.421875 -0.65625 9.890625q-1.421875 5.46875 -3.25 8.59375q0.515625 7.8125 0.515625 12.375q0 4.546875 -0.515625 8.453125q-0.515625 3.90625 -1.6875 7.421875q-1.171875 3.515625 -3.0 7.421875q1.046875 19.796875 -4.5625 36.203125q-5.59375 16.40625 -12.109375 30.718765q-0.78125 1.828125 -1.5625 3.390625q-0.78125 1.5625 -1.296875 3.125q-2.859375 0.78125 -5.203125 1.828125q-2.34375 1.03125 -4.4375 2.34375q-2.859375 1.8125 -5.734375 2.984375q-2.859375 1.171875 -5.984375 1.171875q-12.484375 -9.109375 -12.875 -31.500015q-0.390625 -22.40625 9.5 -57.03125q1.8125 -1.296875 1.5625 -3.90625l0 -2.859375l-2.609375 -0.265625q-1.296875 0 -2.34375 0.265625q-1.03125 0.25 -1.5625 2.34375q-8.328125 5.984375 -18.09375 12.375q-9.765625 6.375 -20.187485 11.71875q-10.40625 5.328125 -21.21875 8.84375q-10.8125 3.515625 -20.96875 3.515625q-26.03125 0 -39.3125 -26.5625l-2.34375 -4.6875l-2.609375 4.171875q-0.78125 1.296875 -2.734375 5.078125q-1.953125 3.765625 -3.90625 8.71875q-1.953125 4.953125 -3.390625 10.15625q-1.421875 5.203125 -0.90625 9.109375q-3.125 2.859375 -6.125 6.515625q-2.984375 3.640625 -4.28125 8.328125q-0.53125 1.296875 -0.265625 2.46875q0.265625 1.171875 0.78125 2.484375q-0.265625 1.8125 -1.046875 2.59375q-0.78125 0.78125 -1.8125 1.5625q-1.3125 1.3125 -2.609375 2.75q-1.296875 1.421875 -2.34375 3.2500153q-0.515625 1.5625 -0.78125 3.25q-0.265625 1.6875 -0.515625 3.0q0 2.859375 -0.78125 3.90625q-2.609375 5.46875 -4.5625 8.984375q-1.953125 3.515625 -3.78125 5.328125q-1.8125 1.828125 -3.765625 2.46875q-1.953125 0.65625 -4.5625 0.65625zm319.51587 -71.85939q-1.828125 1.546875 -3.125 3.765625q-1.296875 2.21875 -2.609375 4.5625q-1.296875 2.859375 -2.859375 5.46875q-1.5625 2.59375 -3.90625 4.6875q-1.296875 3.90625 -2.609375 6.125q-1.296875 2.203125 -4.15625 5.0625q-2.609375 10.421875 -12.234375 22.656265q-0.265625 2.34375 -1.4375 4.5625q-1.171875 2.21875 -2.46875 4.296875q-0.53125 0.78125 -1.046875 1.703125q-0.515625 0.90625 -0.78125 1.421875l-0.515625 2.609375q-1.3125 2.078125 -2.875 3.640625q-1.5625 1.5625 -2.859375 2.859375q-0.515625 0.78125 -1.828125 2.09375l-3.90625 1.5625q-19.0 -2.609375 -23.171875 -20.3125l0.265625 -2.609375q0.515625 -1.296875 0.90625 -2.734375q0.390625 -1.4375 0.90625 -3.0q1.046875 -3.640625 2.46875 -7.2812653q1.4375 -3.65625 4.3125 -6.515625q0.515625 -1.828125 2.328125 -5.859375q1.828125 -4.03125 6.265625 -12.109375q3.640625 -6.25 5.71875 -9.890625q2.09375 -3.65625 3.390625 -5.734375q-2.609375 -4.15625 -6.25 -7.546875q-3.390625 -6.515625 -5.859375 -12.5q-2.46875 -5.984375 -3.78125 -10.671875q-0.25 -3.390625 -0.78125 -5.734375q-0.515625 -2.34375 -1.03125 -4.953125q-0.78125 -2.859375 -1.3125 -5.71875q-0.515625 -2.875 -0.515625 -6.0q-1.296875 -1.8125 -1.5625 -3.640625l0.515625 -2.609375q0.78125 -1.8125 0.265625 -4.8125q-0.515625 -3.0 -1.296875 -6.125q-0.53125 -2.59375 -1.1875 -5.71875q-0.640625 -3.125 -0.390625 -6.25q0.265625 -3.125 1.703125 -5.8593674q1.4375 -2.734375 4.8125 -4.828125l4.4375 -0.25q2.34375 1.296875 4.546875 2.46875q2.21875 1.171875 4.296875 2.46875q2.875 1.3125 5.46875 2.6093674q2.609375 1.296875 5.46875 3.390625l1.828125 3.640625l3.390625 2.859375l0 2.875q0.25 1.03125 0.25 2.859375q0 3.390625 1.046875 4.171875l1.046875 3.125q0 3.640625 0.78125 6.90625q0.78125 3.25 1.5625 6.109375q0.78125 2.859375 1.5625 5.984375q0.78125 3.125 0.25 6.78125q1.5625 -0.78125 2.609375 -1.828125q0.515625 -0.515625 1.03125 -0.78125q0.53125 -0.265625 1.046875 -0.78125l15.359375 -20.828125l-0.515625 -2.609375l5.46875 -5.203125q2.078125 -2.09375 4.03125 -3.90625q1.953125 -1.828125 3.265625 -3.90625l2.859375 -2.09375q8.328125 -13.015617 23.703125 -16.140617l3.640625 -0.515625l1.046875 3.375q1.03125 2.875 4.28125 5.21875q3.265625 2.3437424 6.90625 4.4218674l2.34375 1.5625q1.3125 2.609375 1.3125 3.90625q0 1.296875 -0.265625 2.34375l1.046875 2.609375q-2.09375 6.25 -5.09375 9.109375q-2.984375 2.859375 -5.84375 5.203125q-2.34375 2.09375 -4.296875 3.78125q-1.953125 1.6875 -3.0 4.296875l-1.828125 2.078125q-5.46875 3.125 -7.03125 8.34375l-0.78125 3.125l-3.125 0q-0.25 0 -1.171875 0.90625q-0.90625 0.90625 -2.734375 4.5625q-1.8125 2.59375 -2.59375 3.375q-0.78125 0.78125 -1.3125 1.3125q-0.25 1.03125 -0.640625 1.953125q-0.390625 0.90625 -0.921875 2.203125q-3.375 3.390625 -4.15625 5.09375q-0.78125 1.6875 -1.828125 3.765625q-1.046875 2.078125 -1.953125 4.03125q-0.90625 1.953125 -3.0 4.046875l-1.296875 3.90625zm44.016663 -29.6875q-1.3125 -7.296875 -0.796875 -15.109375q0.53125 -7.8125 0.53125 -15.109375q0 -7.03125 -0.921875 -14.96875q-0.90625 -7.9375 -1.5625 -15.234367q-0.640625 -7.296875 -0.515625 -13.40625q0.140625 -6.125 1.703125 -9.515625q2.078125 -3.90625 5.203125 -6.109375q3.125 -2.21875 5.984375 -5.078125q3.390625 0.515625 6.125 1.953125q2.734375 1.421875 4.6875 3.640625q1.953125 2.21875 2.859375 4.5625q0.921875 2.34375 0.390625 4.6875q6.515625 3.90625 10.5469055 10.546875q4.046875 6.640625 6.25 14.578117q2.21875 7.9375 3.125 16.796875q0.921875 8.859375 1.5625 17.453125q0.65625 8.59375 1.296875 16.28125q0.65625 7.671875 2.484375 13.40625q11.453125 -16.671875 19.390625 -29.5625q7.953125 -12.890625 16.015625 -24.734375q8.078125 -11.859367 18.09375 -24.093742q10.03125 -12.234375 25.65625 -27.609375q3.390625 0.53125 5.203125 1.3125q1.828125 0.78125 3.65625 1.5625q1.828125 0.78125 3.90625 1.171875q2.078125 0.390625 5.734375 -0.140625q1.296875 3.125 1.9375 4.5625q0.65625 1.4375 1.171875 2.734375q0.53125 1.296875 1.3125 3.390625q0.78125 2.078125 2.34375 6.25q0.78125 1.03125 0.640625 2.734375q-0.125 1.6875 -0.390625 3.0q-0.25 1.296875 -0.125 2.078125q0.140625 0.78125 1.703125 0q-1.046875 4.421875 -3.390625 7.9375q-2.34375 3.515625 -2.078125 8.468742q-7.03125 9.375 -15.625 19.265625q-8.59375 9.890625 -17.1875 20.703125q-8.59375 10.8125 -16.546875 22.40625q-7.9375 11.578125 -13.40625 24.59375q-1.5625 0 -2.34375 0.78125q-0.78125 0.78125 -1.4375 1.828125q-0.640625 1.03125 -1.296875 2.078125q-0.65625 1.046875 -2.21875 1.046875q-0.515625 8.328125 -6.125 15.75q-5.59375 7.421875 -11.3125 12.625q0.515625 2.09375 0.515625 3.3906403q0 1.296875 -0.265625 2.609375q-0.25 1.296875 -0.390625 2.734375q-0.125 1.421875 0.140625 3.515625q-2.34375 6.25 -6.125 10.421875q-3.78125 4.15625 -8.203125 6.234375q-4.421875 2.09375 -9.109375 1.703125q-4.6875 -0.390625 -8.8594055 -3.265625q-1.8125 -1.03125 -3.125 -2.859375q-1.296875 -1.828125 -2.734375 -3.515625q-1.421875 -1.6875 -2.859375 -3.125q-1.4375 -1.4375 -3.515625 -1.953125q0.515625 -2.609375 0.125 -5.46875q-0.390625 -2.859375 -1.171875 -5.203125q-0.78125 -2.3437653 -1.828125 -3.9062653q-1.03125 -1.5625 -2.078125 -1.5625q-1.03125 -6.515625 -2.734375 -14.1875q-1.6875 -7.6875 -3.390625 -15.234375q-1.6875 -7.5625 -2.734375 -14.84375q-1.03125 -7.296875 -0.765625 -13.546875q0.25 -3.125 -1.1875 -5.59375q-1.421875 -2.484375 -1.9375 -5.859375zm286.95743 19.78125q-0.25 3.125 0.53125 6.0q0.78125 2.859375 1.953125 5.59375q1.171875 2.734375 2.203125 5.59375q1.046875 2.859375 1.5625 5.734375q0.53125 3.640625 0 7.9375q-0.515625 4.296875 -1.828125 8.34375q-1.296875 4.03125 -3.375 7.28125q-2.078125 3.25 -4.953125 4.8125q-3.640625 4.6875153 -8.859375 7.2968903q-5.203125 2.609375 -9.625 6.25q-2.859375 1.828125 -6.375 2.609375q-3.515625 0.78125 -7.171875 1.5625q-2.859375 1.5625 -6.765625 3.25q-3.90625 1.6875 -8.078125 3.125q-4.15625 1.4375 -8.328125 2.09375q-4.171875 0.640625 -7.296875 0.375q-7.8125 2.875 -15.234375 3.78125q-7.40625 0.90625 -17.3125 -1.171875q-9.375 1.296875 -17.3125 -0.78125q-7.9375 -2.078125 -14.0625 -6.640625q-6.125 -4.5625 -10.6875 -10.9375q-4.546875 -6.375 -7.40625 -13.406265q-2.09375 -14.84375 1.03125 -26.953125q3.125 -12.109375 8.984375 -22.390625q5.859375 -10.296875 13.40625 -19.015625q7.5625 -8.71875 14.59375 -17.0625q1.5625 0.53125 2.46875 -0.125q0.921875 -0.65625 1.703125 -1.828125q0.78125 -1.171875 1.6875 -2.203125q0.90625 -1.046875 2.21875 -1.3125q1.8125 -3.90625 5.328125 -5.859375q3.515625 -1.953125 5.609375 -5.59375q2.34375 -0.515625 3.90625 -1.5625q1.5625 -1.046875 2.984375 -2.34375q1.4375 -1.296875 3.0 -2.46875q1.5625 -1.171875 3.640625 -1.703125l0 -2.859375q4.6875 -2.078125 6.890625 -4.8125q2.21875 -2.734375 5.34375 -6.6406174q2.34375 -0.265625 3.78125 -0.265625q1.4375 0 4.296875 -0.515625q2.078125 -3.65625 3.765625 -5.46875q1.703125 -1.828125 5.09375 -3.90625q3.125 1.5625 6.890625 2.078125q3.78125 0.515625 6.640625 3.390625q0.265625 2.59375 1.5625 4.03125q1.3125 1.4375 2.875 2.6093674q1.5625 1.171875 2.984375 2.46875q1.4375 1.296875 1.953125 3.640625q1.046875 0.265625 1.4375 -0.25q0.390625 -0.53125 1.4375 -0.265625q0.78125 3.640625 1.8125 4.8125q1.046875 1.171875 2.09375 4.5625q-1.3125 2.609375 -1.96875 5.34375q-0.640625 2.734375 -3.25 4.03125q-0.25 1.828125 1.046875 1.953125q1.296875 0.125 1.5625 1.4375q0.265625 2.34375 -0.78125 3.375q6.25 10.15625 11.1875 21.484375q4.953125 11.328125 11.203125 21.484375zm-32.546875 24.734375q1.046875 -2.859375 2.734375 -4.671875q1.6875 -1.828125 1.953125 -5.484375q-1.296875 -2.078125 -1.5625 -3.25q-0.265625 -1.171875 -0.265625 -3.765625q-5.71875 -8.078125 -9.890625 -17.3125q-4.171875 -9.25 -9.375 -17.328125q-0.515625 1.046875 -1.828125 2.09375q-1.296875 1.03125 -2.859375 -0.53125q-0.515625 2.078125 -1.828125 3.0q-1.296875 0.90625 -2.859375 0.78125q-1.5625 -0.140625 -3.265625 -0.78125q-1.6875 -0.65625 -2.984375 -1.703125q-7.546875 6.0 -15.109375 11.734375q-7.546875 5.71875 -13.53125 13.265625q-1.046875 0.53125 -1.3125 0.40625q-0.25 -0.140625 -1.546875 0.375q-2.09375 4.953125 -5.09375 8.984375q-2.984375 4.03125 -5.859375 8.203125q-2.859375 4.171875 -4.9375 8.859375q-2.078125 4.6875 -2.34375 10.9375q4.421875 3.640625 10.40625 4.421875q6.0 0.78125 12.375 0.265625q6.390625 -0.53125 12.5 -1.703125q6.125 -1.171875 11.328125 -1.171875q10.9375 -2.59375 18.75 -6.890625q7.8125 -4.296875 16.40625 -8.734375zm156.76428 53.906265q-4.171875 0.265625 -10.296875 -0.265625q-6.109375 -0.515625 -11.3125 1.828125q-13.8125 -0.515625 -28.140625 -3.375q-14.3125 -2.875 -26.28125 -7.03125q-2.609375 -2.875 -5.21875 -5.34375q-2.59375 -2.46875 -7.03125 -3.515625q-6.25 -4.953125 -10.15625 -12.10939q-3.90625 -7.15625 -6.25 -15.234375q-2.34375 -8.078125 -3.125 -16.53125q-0.78125 -8.46875 -0.515625 -16.28125q3.90625 -11.71875 11.0625 -20.171875q7.171875 -8.46875 14.71875 -16.796875q3.390625 -1.5625 5.078125 -3.25q1.6875 -1.703125 3.640625 -3.125q1.953125 -1.4375 3.90625 -2.875q1.953125 -1.4375 3.515625 -3.515625q5.46875 -1.296875 9.5 -3.765625q4.046875 -2.484375 7.953125 -5.21875q3.90625 -2.734375 8.0625 -5.078125q4.171875 -2.34375 9.640625 -3.640625q2.078125 -2.34375 4.9375 -3.78125q2.875 -1.4375 5.859375 -2.859375q3.0 -1.4375 5.734375 -2.9999924q2.734375 -1.5625 4.296875 -4.171875q1.3125 2.09375 3.65625 1.4375q2.34375 -0.65625 4.421875 -1.4375q1.296875 -0.25 2.203125 0.53125q0.921875 0.78125 1.703125 1.5625q0.78125 0.78125 1.421875 0.90625q0.65625 0.125 1.1875 -1.171875q1.296875 0 0.765625 1.3125q-0.515625 1.296875 -0.765625 1.8125q2.078125 -0.265625 3.5 0.9062424q1.4375 1.171875 4.5625 1.4375q1.046875 1.296875 0.515625 1.953125q-0.515625 0.65625 -0.515625 2.21875q7.8125 2.34375 9.890625 7.421875q2.09375 5.078125 0.265625 10.546875q-1.8125 5.46875 -6.5 10.15625q-4.6875 4.6875 -10.15625 6.25q-12.5 3.375 -23.578125 7.421875q-11.0625 4.03125 -18.09375 11.84375q-6.25 1.828125 -11.0625 4.828125q-4.8125 2.984375 -9.109375 6.765625q-4.296875 3.765625 -8.078125 7.8125q-3.78125 4.03125 -7.9375 7.9375q0.25 3.640625 -1.1875 5.59375q-1.421875 1.953125 -2.71875 4.03125q0.515625 3.90625 1.8125 6.90625q1.3125 3.0 2.875 5.859375q17.1875 5.203125 36.578125 6.515625q19.40625 1.296875 38.9375 1.5625q1.8125 2.59375 4.28125 4.8125q2.484375 2.21875 4.5625 4.6875q2.09375 2.4687653 3.390625 5.4687653q1.296875 3.0 0.515625 7.421875q-3.640625 3.90625 -8.078125 7.171875q-4.421875 3.25 -8.84375 6.625z" fill-rule="nonzero"/>
    </g>
  </g>
</svg>
