<svg version="1.1" viewBox="0.0 0.0 453.54330708661416 453.54330708661416" fill="none" stroke="none" stroke-linecap="square" stroke-miterlimit="10"
  xmlns:xlink="http://www.w3.org/1999/xlink"
  xmlns="http://www.w3.org/2000/svg">
  <clipPath id="ga380f99f94_0_0.0">
    <path d="m0 0l453.5433 0l0 453.5433l-453.5433 0l0 -453.5433z" clip-rule="nonzero"/>
  </clipPath>
  <g clip-path="url(#ga380f99f94_0_0.0)">
    <path fill="#03a678" d="m0 0l453.5433 0l0 453.5433l-453.5433 0z" fill-rule="evenodd"/>
    <g filter="url(#shadowFilter-ga380f99f94_0_0.1)">
      <use xlink:href="#ga380f99f94_0_0.1" transform="matrix(1.0 0.0 0.0 1.0 0.0 8.0)"/>
    </g>
    <defs>
      <filter id="shadowFilter-ga380f99f94_0_0.1" filterUnits="userSpaceOnUse">
        <feGaussianBlur in="SourceAlpha" stdDeviation="9.0" result="blur"/>
        <feComponentTransfer in="blur" color-interpolation-filters="sRGB">
          <feFuncR type="linear" slope="0" intercept="0.4"/>
          <feFuncG type="linear" slope="0" intercept="0.4"/>
          <feFuncB type="linear" slope="0" intercept="0.4"/>
          <feFuncA type="linear" slope="0.5" intercept="0"/>
        </feComponentTransfer>
      </filter>
    </defs>
    <g id="ga380f99f94_0_0.1">
      <path fill="#000000" fill-opacity="0.0" d="m35.102364 145.77953l383.3386 0l0 161.98427l-383.3386 0z" fill-rule="evenodd"/>
      <path fill="#f3f3f3" d="m54.30549 267.73328q-1.140625 0 -3.515625 -0.34375q-1.8125 -1.9375 -3.234375 -5.265625q-1.40625 -3.34375 -2.15625 -7.140625q-0.734375 -3.796875 -0.671875 -7.59375q0.0625 -3.796875 1.296875 -6.734375q0 -0.125 1.078125 -2.71875q1.078125 -2.609375 2.78125 -6.625q1.703125 -4.03125 3.84375 -8.953125q2.15625 -4.9375 4.3125 -9.6875q2.15625 -4.765625 4.125 -8.671875q1.984375 -3.90625 3.46875 -6.0625q1.015625 -1.578125 1.859375 -3.046875q0.859375 -1.484375 1.640625 -2.71875q1.25 -2.046875 2.328125 -3.796875q1.078125 -1.765625 2.375 -3.171875q1.3125 -1.421875 2.890625 -2.5q1.59375 -1.078125 3.859375 -1.859375q1.359375 0.5625 2.375 1.1875q1.015625 0.625 1.8125 1.53125l0.34375 1.578125q0.21875 0.796875 0.71875 1.078125q0.515625 0.28125 0.859375 0.28125q1.46875 0.34375 2.546875 0.75q1.078125 0.390625 2.328125 0.5q0.453125 0.671875 0.84375 1.359375q0.40625 0.671875 0.859375 1.25q2.265625 3.28125 3.734375 6.34375q1.46875 3.046875 0 6.671875l0.109375 1.25q0.5625 0.796875 0.5625 1.484375q0 0.671875 -0.21875 1.921875q-0.109375 0.90625 -0.171875 1.984375q-0.0625 1.0625 0.28125 2.3125l0.796875 0.90625q1.8125 0.90625 3.515625 0.90625q2.265625 0 4.078125 -1.015625q1.8125 -1.015625 3.390625 -2.046875q1.25 -0.90625 2.328125 -1.46875q1.078125 -0.5625 2.09375 -0.796875q2.375 -2.265625 4.359375 -4.015625q1.984375 -1.75 4.140625 -3.5625q4.078125 -3.296875 7.9218674 -7.078125q3.859375 -3.796875 6.125 -9.46875q1.234375 -0.796875 2.828125 -0.796875q1.578125 0 3.15625 0.625q1.59375 0.625 3.1875 1.421875q0.34375 0.21875 0.625 0.34375q0.28125 0.109375 0.625 0.328125q0 1.25 1.015625 2.265625q0.5625 0.453125 0.78125 0.578125q0.234375 0.109375 0.46875 0.21875q0.90625 0.5625 1.515625 1.015625q0.625 0.453125 0.96875 1.25q1.015625 3.0625 3.40625 4.765625q-0.234375 1.234375 0.109375 2.4375q0.34375 1.1875 0.796875 2.3125q0.21875 0.453125 0.328125 0.859375q0.125 0.390625 0.34375 0.953125l-2.484375 -0.21875l0.328125 2.484375q0.34375 1.921875 -0.28125 4.3125q-0.625 2.375 -1.40625 3.734375q0.21875 3.390625 0.21875 5.375q0 1.984375 -0.234375 3.6875q-0.21875 1.703125 -0.734375 3.234375q-0.5 1.515625 -1.296875 3.21875q0.453125 8.609375 -1.984375 15.75q-2.4375 7.140625 -5.265625 13.359375q-0.34375 0.796875 -0.6875 1.484375q-0.328125 0.671875 -0.5625 1.359375q-1.234375 0.328125 -2.265625 0.78125q-1.015625 0.453125 -1.921875 1.03125q-1.25 0.78125 -2.5 1.296875q-1.234375 0.515625 -2.59375 0.515625q-5.4374924 -3.96875 -5.6093674 -13.703125q-0.171875 -9.75 4.1406174 -24.8125q0.78125 -0.578125 0.671875 -1.703125l0 -1.25l-1.125 -0.109375q-0.578125 0 -1.03125 0.109375q-0.453125 0.109375 -0.671875 1.015625q-3.6249924 2.609375 -7.8749924 5.390625q-4.25 2.765625 -8.78125 5.09375q-4.53125 2.328125 -9.234375 3.859375q-4.703125 1.515625 -9.109375 1.515625q-11.328125 0 -17.109375 -11.546875l-1.015625 -2.046875l-1.140625 1.8125q-0.34375 0.578125 -1.1875 2.21875q-0.84375 1.640625 -1.703125 3.796875q-0.84375 2.140625 -1.46875 4.40625q-0.625 2.265625 -0.390625 3.96875q-1.359375 1.25 -2.671875 2.84375q-1.296875 1.578125 -1.859375 3.609375q-0.234375 0.578125 -0.125 1.09375q0.125 0.5 0.34375 1.0625q-0.109375 0.796875 -0.453125 1.140625q-0.34375 0.328125 -0.796875 0.671875q-0.5625 0.5625 -1.125 1.1875q-0.5625 0.625 -1.015625 1.421875q-0.234375 0.671875 -0.34375 1.421875q-0.109375 0.734375 -0.234375 1.296875q0 1.25 -0.328125 1.703125q-1.140625 2.375 -2.0 3.90625q-0.84375 1.53125 -1.640625 2.3125q-0.78125 0.796875 -1.640625 1.078125q-0.84375 0.296875 -1.96875 0.296875zm138.98828 -31.28125q-0.796875 0.6875 -1.359375 1.65625q-0.5625 0.953125 -1.125 1.96875q-0.578125 1.25 -1.265625 2.390625q-0.671875 1.125 -1.6875 2.03125q-0.5625 1.703125 -1.140625 2.671875q-0.5625 0.953125 -1.796875 2.203125q-1.140625 4.53125 -5.328125 9.859375q-0.109375 1.015625 -0.625 1.984375q-0.515625 0.953125 -1.078125 1.859375q-0.21875 0.34375 -0.453125 0.75q-0.21875 0.390625 -0.34375 0.609375l-0.21875 1.140625q-0.5625 0.90625 -1.25 1.578125q-0.671875 0.6875 -1.25 1.25q-0.21875 0.34375 -0.78125 0.90625l-1.703125 0.6875q-8.265625 -1.140625 -10.078125 -8.84375l0.109375 -1.140625q0.21875 -0.5625 0.390625 -1.1875q0.171875 -0.625 0.40625 -1.296875q0.453125 -1.59375 1.0625 -3.171875q0.625 -1.59375 1.875 -2.828125q0.234375 -0.796875 1.015625 -2.546875q0.796875 -1.765625 2.71875 -5.28125q1.59375 -2.71875 2.5 -4.296875q0.90625 -1.59375 1.46875 -2.5q-1.125 -1.8125 -2.71875 -3.28125q-1.46875 -2.828125 -2.546875 -5.4375q-1.078125 -2.609375 -1.640625 -4.640625q-0.109375 -1.46875 -0.34375 -2.484375q-0.21875 -1.03125 -0.453125 -2.15625q-0.34375 -1.25 -0.578125 -2.5q-0.21875 -1.25 -0.21875 -2.609375q-0.5625 -0.78125 -0.671875 -1.578125l0.21875 -1.140625q0.34375 -0.78125 0.109375 -2.078125q-0.21875 -1.3125 -0.5625 -2.671875q-0.21875 -1.140625 -0.5 -2.5q-0.28125 -1.359375 -0.171875 -2.71875q0.109375 -1.359375 0.734375 -2.546875q0.625 -1.1875 2.09375 -2.09375l1.921875 -0.109375q1.03125 0.5625 1.984375 1.078125q0.96875 0.5 1.875 1.078125q1.25 0.5625 2.375 1.125q1.140625 0.5625 2.375 1.46875l0.796875 1.59375l1.46875 1.25l0 1.234375q0.125 0.453125 0.125 1.25q0 1.46875 0.453125 1.8125l0.453125 1.359375q0 1.59375 0.328125 3.015625q0.34375 1.40625 0.6875 2.65625q0.34375 1.234375 0.671875 2.59375q0.34375 1.359375 0.125 2.953125q0.671875 -0.34375 1.125 -0.796875q0.234375 -0.21875 0.453125 -0.328125q0.234375 -0.125 0.453125 -0.34375l6.6875 -9.0625l-0.234375 -1.140625l2.390625 -2.265625q0.90625 -0.90625 1.75 -1.6875q0.84375 -0.796875 1.421875 -1.703125l1.234375 -0.90625q3.625 -5.671875 10.3125 -7.03125l1.59375 -0.21875l0.453125 1.46875q0.453125 1.25 1.859375 2.265625q1.421875 1.015625 3.0 1.921875l1.03125 0.6875q0.5625 1.125 0.5625 1.703125q0 0.5625 -0.109375 1.015625l0.453125 1.125q-0.90625 2.71875 -2.21875 3.96875q-1.296875 1.25 -2.546875 2.265625q-1.015625 0.90625 -1.875 1.640625q-0.84375 0.734375 -1.296875 1.875l-0.796875 0.90625q-2.375 1.359375 -3.046875 3.625l-0.34375 1.359375l-1.359375 0q-0.109375 0 -0.515625 0.390625q-0.390625 0.390625 -1.1875 1.984375q-0.796875 1.125 -1.140625 1.46875q-0.328125 0.34375 -0.5625 0.5625q-0.109375 0.453125 -0.28125 0.859375q-0.171875 0.390625 -0.390625 0.953125q-1.46875 1.484375 -1.8125 2.21875q-0.34375 0.734375 -0.796875 1.640625q-0.453125 0.90625 -0.859375 1.765625q-0.390625 0.84375 -1.296875 1.75l-0.5625 1.6875zm19.148438 -12.90625q-0.5625 -3.171875 -0.34375 -6.5625q0.234375 -3.40625 0.234375 -6.578125q0 -3.0625 -0.40625 -6.515625q-0.390625 -3.453125 -0.671875 -6.625q-0.28125 -3.171875 -0.234375 -5.828125q0.0625 -2.671875 0.734375 -4.140625q0.90625 -1.703125 2.265625 -2.65625q1.359375 -0.96875 2.609375 -2.21875q1.46875 0.234375 2.65625 0.859375q1.203125 0.609375 2.046875 1.578125q0.84375 0.96875 1.234375 1.984375q0.40625 1.015625 0.1875 2.03125q2.828125 1.703125 4.578125 4.59375q1.765625 2.890625 2.71875 6.34375q0.96875 3.453125 1.359375 7.3125q0.40625 3.84375 0.6875 7.59375q0.28125 3.734375 0.5625 7.078125q0.28125 3.328125 1.078125 5.828125q4.984375 -7.25 8.4375 -12.859375q3.453125 -5.609375 6.96875 -10.765625q3.515625 -5.15625 7.875 -10.46875q4.359375 -5.328125 11.15625 -12.015625q1.46875 0.234375 2.265625 0.578125q0.796875 0.328125 1.578125 0.671875q0.796875 0.34375 1.703125 0.515625q0.90625 0.15625 2.5 -0.0625q0.5625 1.359375 0.84375 1.984375q0.28125 0.625 0.5 1.1875q0.234375 0.5625 0.578125 1.46875q0.34375 0.90625 1.015625 2.71875q0.34375 0.453125 0.28125 1.1875q-0.046875 0.734375 -0.171875 1.3125q-0.109375 0.5625 -0.0625 0.90625q0.0625 0.328125 0.75 0q-0.453125 1.921875 -1.484375 3.453125q-1.015625 1.53125 -0.890625 3.671875q-3.0625 4.078125 -6.8125 8.390625q-3.734375 4.296875 -7.46875 9.0q-3.734375 4.703125 -7.1875 9.75q-3.453125 5.03125 -5.84375 10.703125q-0.671875 0 -1.015625 0.34375q-0.34375 0.328125 -0.625 0.78125q-0.28125 0.453125 -0.5625 0.90625q-0.28125 0.453125 -0.96875 0.453125q-0.21875 3.625 -2.65625 6.859375q-2.4375 3.234375 -4.921875 5.5q0.21875 0.90625 0.21875 1.46875q0 0.5625 -0.109375 1.140625q-0.109375 0.5625 -0.171875 1.1875q-0.0625 0.609375 0.0625 1.515625q-1.03125 2.71875 -2.671875 4.53125q-1.640625 1.8125 -3.5625 2.71875q-1.921875 0.921875 -3.96875 0.75q-2.03125 -0.171875 -3.84375 -1.421875q-0.796875 -0.453125 -1.375 -1.25q-0.5625 -0.796875 -1.1875 -1.53125q-0.609375 -0.734375 -1.234375 -1.359375q-0.625 -0.625 -1.53125 -0.84375q0.21875 -1.140625 0.046875 -2.375q-0.15625 -1.25 -0.5 -2.265625q-0.34375 -1.03125 -0.796875 -1.703125q-0.453125 -0.6875 -0.90625 -0.6875q-0.453125 -2.828125 -1.1875 -6.171875q-0.734375 -3.34375 -1.46875 -6.625q-0.734375 -3.28125 -1.1875 -6.453125q-0.453125 -3.171875 -0.34375 -5.890625q0.109375 -1.359375 -0.515625 -2.4375q-0.625 -1.078125 -0.84375 -2.546875zm124.83594 8.609375q-0.109375 1.359375 0.21875 2.609375q0.34375 1.234375 0.84375 2.4375q0.515625 1.1875 0.96875 2.4375q0.453125 1.234375 0.6875 2.484375q0.21875 1.578125 -0.015625 3.453125q-0.21875 1.875 -0.78125 3.625q-0.5625 1.75 -1.46875 3.171875q-0.90625 1.421875 -2.15625 2.09375q-1.578125 2.046875 -3.84375 3.1875q-2.265625 1.125 -4.203125 2.703125q-1.234375 0.796875 -2.765625 1.140625q-1.53125 0.328125 -3.125 0.671875q-1.234375 0.6875 -2.9375 1.421875q-1.703125 0.734375 -3.515625 1.359375q-1.8125 0.625 -3.625 0.90625q-1.8125 0.28125 -3.171875 0.171875q-3.390625 1.25 -6.625 1.640625q-3.234375 0.390625 -7.53125 -0.515625q-4.078125 0.578125 -7.53125 -0.34375q-3.453125 -0.90625 -6.125 -2.875q-2.65625 -1.984375 -4.640625 -4.765625q-1.984375 -2.78125 -3.234375 -5.828125q-0.90625 -6.46875 0.453125 -11.734375q1.359375 -5.265625 3.90625 -9.734375q2.5625 -4.484375 5.84375 -8.265625q3.28125 -3.796875 6.34375 -7.421875q0.671875 0.21875 1.0625 -0.0625q0.40625 -0.28125 0.75 -0.78125q0.34375 -0.515625 0.734375 -0.96875q0.390625 -0.453125 0.96875 -0.578125q0.78125 -1.6875 2.3125 -2.53125q1.53125 -0.859375 2.4375 -2.453125q1.015625 -0.21875 1.6875 -0.671875q0.6875 -0.453125 1.3125 -1.015625q0.625 -0.578125 1.296875 -1.078125q0.6875 -0.515625 1.59375 -0.734375l0 -1.25q2.046875 -0.90625 3.0 -2.09375q0.96875 -1.1875 2.328125 -2.890625q1.015625 -0.109375 1.640625 -0.109375q0.625 0 1.875 -0.234375q0.90625 -1.578125 1.640625 -2.375q0.734375 -0.796875 2.203125 -1.703125q1.359375 0.6875 3.0 0.921875q1.640625 0.21875 2.890625 1.453125q0.109375 1.140625 0.671875 1.765625q0.578125 0.625 1.25 1.140625q0.6875 0.5 1.3125 1.0625q0.625 0.5625 0.84375 1.59375q0.453125 0.109375 0.625 -0.109375q0.171875 -0.234375 0.625 -0.125q0.34375 1.59375 0.796875 2.109375q0.453125 0.5 0.90625 1.96875q-0.578125 1.140625 -0.859375 2.328125q-0.28125 1.1875 -1.40625 1.75q-0.125 0.796875 0.4375 0.859375q0.578125 0.046875 0.6875 0.609375q0.109375 1.03125 -0.34375 1.484375q2.71875 4.40625 4.875 9.34375q2.15625 4.921875 4.875 9.34375zm-14.15625 10.765625q0.453125 -1.25 1.1875 -2.046875q0.734375 -0.796875 0.84375 -2.375q-0.5625 -0.90625 -0.6875 -1.40625q-0.109375 -0.515625 -0.109375 -1.65625q-2.484375 -3.515625 -4.296875 -7.53125q-1.8125 -4.015625 -4.078125 -7.53125q-0.234375 0.453125 -0.796875 0.90625q-0.5625 0.453125 -1.25 -0.234375q-0.21875 0.90625 -0.796875 1.3125q-0.5625 0.390625 -1.25 0.34375q-0.671875 -0.0625 -1.40625 -0.34375q-0.734375 -0.28125 -1.296875 -0.734375q-3.28125 2.59375 -6.578125 5.09375q-3.28125 2.484375 -5.890625 5.78125q-0.453125 0.21875 -0.5625 0.171875q-0.109375 -0.0625 -0.671875 0.15625q-0.90625 2.15625 -2.21875 3.921875q-1.296875 1.75 -2.546875 3.5625q-1.25 1.8125 -2.15625 3.859375q-0.90625 2.03125 -1.015625 4.75q1.921875 1.578125 4.53125 1.921875q2.609375 0.34375 5.375 0.125q2.78125 -0.234375 5.4375 -0.734375q2.671875 -0.515625 4.9375 -0.515625q4.75 -1.140625 8.140625 -3.0q3.40625 -1.875 7.15625 -3.796875zm68.1875 23.453125q-1.8125 0.109375 -4.484375 -0.125q-2.65625 -0.21875 -4.921875 0.796875q-6.0 -0.21875 -12.234375 -1.46875q-6.21875 -1.25 -11.4375 -3.0625q-1.125 -1.25 -2.265625 -2.328125q-1.125 -1.078125 -3.0625 -1.53125q-2.71875 -2.140625 -4.421875 -5.25q-1.6875 -3.125 -2.71875 -6.640625q-1.015625 -3.515625 -1.359375 -7.1875q-0.328125 -3.6875 -0.21875 -7.078125q1.703125 -5.109375 4.8125 -8.78125q3.125 -3.6875 6.40625 -7.3125q1.46875 -0.671875 2.203125 -1.40625q0.734375 -0.75 1.578125 -1.359375q0.859375 -0.625 1.703125 -1.25q0.859375 -0.625 1.53125 -1.53125q2.390625 -0.5625 4.140625 -1.640625q1.75 -1.078125 3.453125 -2.265625q1.703125 -1.1875 3.515625 -2.203125q1.8125 -1.03125 4.1875 -1.59375q0.90625 -1.015625 2.15625 -1.640625q1.25 -0.625 2.546875 -1.25q1.296875 -0.625 2.484375 -1.296875q1.203125 -0.6875 1.875 -1.8125q0.5625 0.90625 1.578125 0.625q1.03125 -0.296875 1.9375 -0.625q0.5625 -0.125 0.953125 0.21875q0.40625 0.34375 0.734375 0.6875q0.34375 0.328125 0.625 0.390625q0.296875 0.0625 0.515625 -0.515625q0.5625 0 0.328125 0.578125q-0.21875 0.5625 -0.328125 0.78125q0.90625 -0.109375 1.53125 0.40625q0.625 0.5 1.984375 0.625q0.453125 0.5625 0.21875 0.84375q-0.21875 0.28125 -0.21875 0.96875q3.390625 1.015625 4.296875 3.234375q0.90625 2.203125 0.109375 4.578125q-0.78125 2.375 -2.828125 4.421875q-2.03125 2.03125 -4.40625 2.71875q-5.4375 1.46875 -10.265625 3.234375q-4.8125 1.75 -7.859375 5.140625q-2.71875 0.796875 -4.828125 2.109375q-2.09375 1.296875 -3.96875 2.9375q-1.859375 1.640625 -3.5 3.40625q-1.640625 1.75 -3.453125 3.4375q0.109375 1.59375 -0.515625 2.453125q-0.625 0.84375 -1.1875 1.75q0.234375 1.6875 0.796875 3.0q0.5625 1.296875 1.25 2.546875q7.46875 2.265625 15.90625 2.828125q8.4375 0.5625 16.9375 0.6875q0.796875 1.125 1.875 2.09375q1.078125 0.953125 1.984375 2.03125q0.90625 1.078125 1.46875 2.390625q0.5625 1.296875 0.21875 3.21875q-1.578125 1.703125 -3.515625 3.125q-1.921875 1.40625 -3.84375 2.890625z" fill-rule="nonzero"/>
    </g>
  </g>
</svg>
